<svg width="17" height="25" viewBox="0 0 17 25" fill="#ee9939" xmlns="http://www.w3.org/2000/svg"><path d="M8.05538 24.077H2.30938C2.00716 24.0792 1.70756 24.0208 1.42831 23.9052C1.14907 23.7896 0.89586 23.6191 0.683673 23.4039C0.471486 23.1887 0.304634 22.9331 0.192995 22.6522C0.0813561 22.3714 0.0271995 22.071 0.0337308 21.7688V11.1139C0.0708733 9.14172 0.831931 7.25202 2.17203 5.80457C3.51212 4.35711 5.33768 3.45297 7.30119 3.26424C9.2647 3.07552 11.2291 3.6154 12.8203 4.78111C14.4116 5.94682 15.5186 7.65696 15.9307 9.58599C16.0574 10.0867 16.1363 10.5983 16.1664 11.1139C16.1664 14.9175 16.1664 17.9734 16.1664 21.7688C16.1731 22.0745 16.1177 22.3783 16.0036 22.6619C15.8895 22.9455 15.7189 23.203 15.5024 23.4188C15.2859 23.6345 15.0278 23.8041 14.7438 23.9173C14.4598 24.0304 14.1558 24.0847 13.8501 24.077H8.05538ZM8.05538 13.2514H4.15427C3.97902 13.238 3.80294 13.2627 3.6381 13.3237C3.47327 13.3847 3.32358 13.4806 3.19929 13.6049C3.07501 13.7292 2.97907 13.8789 2.91805 14.0437C2.85703 14.2086 2.83238 14.3846 2.84578 14.5599C2.84578 16.3533 2.84578 18.1495 2.84578 19.9483C2.83081 20.1257 2.85487 20.3042 2.91627 20.4713C2.97767 20.6384 3.07492 20.79 3.20118 20.9155C3.32744 21.041 3.47966 21.1373 3.64712 21.1977C3.81459 21.258 3.99324 21.281 4.17053 21.2649H11.9321C12.11 21.2823 12.2896 21.2602 12.4581 21.2004C12.6265 21.1406 12.7798 21.0445 12.907 20.9189C13.0342 20.7932 13.1322 20.6412 13.194 20.4734C13.2559 20.3057 13.2801 20.1264 13.265 19.9483V14.5843C13.2814 14.4044 13.2579 14.2232 13.1962 14.0535C13.1345 13.8838 13.036 13.7298 12.908 13.6025C12.7799 13.4751 12.6253 13.3777 12.4552 13.317C12.2851 13.2563 12.1037 13.2339 11.924 13.2514H8.05538ZM8.05538 10.4475H9.55893C9.68073 10.4629 9.80445 10.4506 9.9208 10.4114C10.0371 10.3722 10.1431 10.3071 10.2307 10.2211C10.3183 10.135 10.3853 10.0303 10.4266 9.91464C10.4679 9.79902 10.4824 9.67554 10.4692 9.55348V7.34286C10.4835 7.22093 10.4701 7.09733 10.4298 6.98135C10.3895 6.86537 10.3235 6.76001 10.2367 6.6732C10.1499 6.58639 10.0445 6.52037 9.92857 6.48011C9.81258 6.43984 9.68899 6.42638 9.56706 6.44073C8.5674 6.44073 7.56774 6.44073 6.55996 6.44073C6.43878 6.42661 6.31598 6.43995 6.20067 6.47977C6.08536 6.51958 5.98048 6.58484 5.89383 6.67072C5.80718 6.75659 5.74097 6.86086 5.70012 6.97581C5.65926 7.09076 5.64481 7.21343 5.65782 7.33473C5.65782 8.06619 5.65782 8.80577 5.65782 9.53723C5.64281 9.65754 5.6549 9.77969 5.69322 9.89472C5.73153 10.0098 5.7951 10.1148 5.87926 10.202C5.96342 10.2893 6.06604 10.3567 6.1796 10.3991C6.29317 10.4416 6.4148 10.4581 6.53557 10.4475H8.05538Z" fill="#594d40"></path><path d="M0.984134 5.94494C0.748442 5.05906 0.520878 4.18944 0.285186 3.31982C0.203913 2.99473 0.0982579 2.66151 0.0332395 2.32829C-0.0456312 1.9533 0.0169874 1.56238 0.209043 1.23078C0.401099 0.899188 0.709018 0.650347 1.07353 0.532156C1.66683 0.345228 2.26825 0.174555 2.8778 0.0445178C3.25455 -0.0172021 3.641 0.0556592 3.96942 0.250329C4.29783 0.444999 4.54724 0.749054 4.67393 1.10919C4.85273 1.65372 4.9909 2.21451 5.12906 2.73465C5.13122 2.77285 5.12335 2.81094 5.10624 2.84516C5.08913 2.87937 5.06338 2.90852 5.03153 2.92971C3.45751 3.51502 2.08018 4.53183 1.05728 5.86367L0.984134 5.94494Z" fill="#594d40"></path><path d="M15.093 5.94499C14.9386 5.77432 14.8004 5.60364 14.6623 5.4411C13.719 4.34958 12.5176 3.5114 11.1675 3.00291C10.9725 2.92976 10.94 2.85661 10.9968 2.66156C11.1513 2.16579 11.2569 1.6619 11.4032 1.16613C11.5226 0.766961 11.7907 0.42887 12.1522 0.221669C12.5136 0.014468 12.9409 -0.0460202 13.3456 0.052694C13.882 0.182731 14.4103 0.320895 14.9711 0.475314C15.3712 0.582178 15.7129 0.842965 15.9215 1.20077C16.1301 1.55858 16.1887 1.98437 16.0845 2.38523C15.8082 3.53931 15.4831 4.68526 15.1743 5.83121C15.1548 5.87401 15.1272 5.91264 15.093 5.94499Z" fill="#594d40"></path><path d="M10.4528 2.75095L8.88421 2.45837C8.72166 1.88133 8.43721 1.64564 8.02272 1.64564C7.60822 1.64564 7.34002 1.94635 7.20999 2.45837L5.63329 2.75908C5.572 2.3117 5.63962 1.85613 5.82821 1.44584C6.0168 1.03556 6.31852 0.68759 6.69797 0.442796C7.06307 0.172784 7.50107 0.0190562 7.95485 0.00165921C8.40862 -0.0157378 8.8571 0.104004 9.24181 0.345268C9.66366 0.576305 10.0054 0.930069 10.2216 1.35968C10.4379 1.7893 10.5185 2.27449 10.4528 2.75095V2.75095Z" fill="#594d40"></path><path d="M3.64188 16.4698H12.4438C12.4478 16.5429 12.4478 16.6162 12.4438 16.6893V19.9402C12.4438 20.3141 12.3137 20.4441 11.948 20.4441H4.09701C3.74754 20.4441 3.60938 20.3059 3.60938 19.9565L3.64188 16.4698Z" fill="#594d40"></path><path d="M12.4597 15.649H3.6416C3.6416 15.2263 3.6416 14.8362 3.6416 14.3974C3.64557 14.3081 3.68281 14.2236 3.74599 14.1604C3.80916 14.0972 3.89369 14.06 3.98295 14.056C4.05062 14.052 4.11846 14.052 4.18613 14.056H11.8989C12.3378 14.056 12.4516 14.1698 12.4516 14.5924L12.4597 15.649Z" fill="#594d40"></path><path d="M6.46191 9.62665V7.25348H9.63156V9.62665H6.46191Z" fill="#594d40"></path></svg>